<?xml version="1.0" standalone="no"?>
<!DOCTYPE svg PUBLIC "-//W3C//DTD SVG 20010904//EN"
 "http://www.w3.org/TR/2001/REC-SVG-20010904/DTD/svg10.dtd">
<svg version="1.0" xmlns="http://www.w3.org/2000/svg"
 width="216.000000pt" height="108.000000pt" viewBox="0 0 216.000000 108.000000"
 preserveAspectRatio="xMidYMid meet">

<g transform="translate(0.000000,108.000000) scale(0.100000,-0.100000)"
fill="#000000" stroke="none">
<path d="M834 900 c-1 -27 6 -34 75 -74 42 -24 100 -68 130 -97 l54 -53 -23
44 c-12 24 -45 67 -72 96 -47 50 -134 114 -154 114 -5 0 -9 -14 -10 -30z"/>
<path d="M1410 901 c-151 -48 -256 -163 -268 -293 l-5 -61 49 7 c39 5 45 4 30
-5 -11 -7 -45 -9 -84 -7 -65 4 -66 4 -32 -10 38 -15 102 -11 126 8 8 7 28 41
44 75 39 81 126 156 273 233 l58 30 -33 10 c-49 16 -129 22 -158 13z m-35 -76
c-31 -25 -51 -33 -40 -15 10 16 -11 12 -25 -5 -7 -9 -20 -13 -29 -10 -19 6
-79 -66 -104 -125 -9 -19 -16 -29 -16 -22 -2 27 49 110 93 150 45 42 64 53 50
30 -5 -8 -2 -9 12 -4 10 4 29 9 42 11 12 1 26 5 29 9 3 3 9 6 12 6 3 0 -7 -11
-24 -25z m60 9 c-57 -43 -60 -45 -32 -29 42 24 44 11 3 -14 -40 -25 -156 -146
-156 -164 0 -8 -3 -7 -9 2 -10 16 -3 43 9 36 5 -3 12 0 16 6 4 8 3 9 -4 5 -22
-13 -12 7 25 52 20 25 63 62 96 83 60 39 90 52 52 23z m-143 -78 c-22 -24 -48
-58 -56 -75 -9 -17 -19 -31 -21 -31 -3 0 4 18 15 40 23 46 77 110 92 110 6 0
-8 -20 -30 -44z m-12 30 c0 -2 -14 -21 -31 -42 -18 -22 -40 -57 -50 -79 -22
-48 -25 -33 -4 18 17 42 85 124 85 103z"/>
<path d="M1315 740 c-27 -27 -47 -51 -44 -52 2 -2 28 21 56 50 29 28 49 52 45
52 -4 0 -30 -22 -57 -50z"/>
<path d="M680 850 c0 -30 4 -40 16 -40 63 0 266 -85 336 -141 46 -36 56 -37
28 -1 -31 39 -116 108 -179 143 -53 30 -171 79 -191 79 -6 0 -10 -18 -10 -40z"/>
<path d="M1574 848 c-12 -18 -55 -141 -51 -144 2 -2 18 31 35 73 29 69 37 104
16 71z"/>
<path d="M491 801 c0 -3 23 -49 50 -101 28 -52 47 -86 43 -75 -3 11 -15 44
-25 74 -11 30 -17 56 -14 59 8 8 234 -39 305 -63 71 -24 138 -56 185 -88 29
-20 29 -19 -5 17 -48 51 -174 110 -302 141 -110 26 -238 46 -237 36z"/>
<path d="M527 493 c-4 -3 -7 -10 -7 -15 0 -4 250 -8 555 -8 487 0 555 2 555
15 0 13 -68 15 -548 15 -302 0 -552 -3 -555 -7z"/>
<path d="M527 413 c-4 -3 -7 -48 -7 -100 l0 -93 40 0 c50 0 80 36 62 75 -6 13
-8 39 -5 58 3 24 0 38 -12 50 -16 17 -66 23 -78 10z m61 -51 c2 -15 -2 -22
-12 -22 -11 0 -16 9 -16 26 0 31 23 28 28 -4z m0 -85 c2 -19 -1 -27 -12 -27
-11 0 -16 10 -16 31 0 38 24 35 28 -4z"/>
<path d="M666 398 c-18 -26 -22 -129 -6 -159 12 -22 59 -26 78 -7 15 15 16
142 2 169 -14 26 -55 24 -74 -3z m54 -79 c0 -62 -2 -70 -17 -67 -14 2 -19 15
-21 57 -4 63 2 81 23 81 12 0 15 -14 15 -71z"/>
<path d="M792 408 c-12 -12 -17 -143 -6 -172 7 -19 55 -21 72 -4 7 7 12 42 12
88 0 80 -9 100 -45 100 -12 0 -26 -5 -33 -12z m48 -89 c0 -58 -3 -70 -16 -67
-8 2 -15 6 -15 11 1 4 1 34 1 67 0 47 3 60 15 60 12 0 15 -15 15 -71z"/>
<path d="M900 320 c0 -82 3 -100 15 -100 10 0 15 11 15 35 0 19 4 35 8 35 4 0
14 -16 21 -35 7 -19 19 -35 27 -35 19 0 18 8 -7 67 l-21 51 21 41 c18 34 19
41 6 41 -8 0 -22 -15 -32 -32 l-18 -33 -3 33 c-2 20 -9 32 -18 32 -11 0 -14
-20 -14 -100z"/>
<path d="M1071 411 c-23 -15 -15 -60 19 -102 17 -22 29 -47 26 -55 -7 -18 -25
-18 -32 1 -6 14 -34 22 -34 9 0 -22 24 -44 48 -44 59 0 69 50 22 103 -16 19
-30 42 -30 51 0 18 26 22 32 4 2 -6 10 -8 16 -4 9 5 9 13 2 27 -11 20 -45 25
-69 10z"/>
<path d="M1170 405 c0 -8 9 -15 20 -15 18 0 20 -7 20 -85 0 -69 3 -85 15 -85
12 0 15 16 15 85 0 69 3 85 15 85 8 0 15 7 15 15 0 11 -12 15 -50 15 -38 0
-50 -4 -50 -15z"/>
<path d="M1300 401 c-14 -27 -13 -154 2 -169 19 -19 66 -15 78 7 16 30 12 133
-6 159 -19 27 -60 29 -74 3z m55 -81 c0 -54 -3 -65 -17 -68 -16 -3 -18 5 -18
68 0 63 2 71 18 68 14 -3 17 -14 17 -68z"/>
<path d="M1410 320 c0 -82 3 -100 15 -100 10 0 15 11 15 35 0 23 5 35 14 35 8
0 17 -15 20 -35 4 -21 13 -35 21 -35 18 0 18 4 5 50 -6 22 -6 38 0 44 15 15
12 73 -6 90 -8 9 -31 16 -50 16 l-34 0 0 -100z m65 35 c0 -43 -29 -40 -33 3
-3 28 0 33 15 30 13 -2 18 -12 18 -33z"/>
<path d="M1540 320 l0 -100 45 0 c33 0 45 4 45 15 0 10 -10 15 -30 15 -25 0
-30 4 -30 25 0 18 5 25 20 25 11 0 20 7 20 15 0 8 -9 15 -20 15 -16 0 -20 7
-20 30 0 27 3 30 30 30 20 0 30 5 30 15 0 11 -12 15 -45 15 l-45 0 0 -100z"/>
<path d="M798 173 c156 -2 408 -2 560 0 152 1 25 2 -283 2 -308 0 -433 -1
-277 -2z"/>
</g>
</svg>
